<svg class="icon" width="42" height="34" viewBox="0 0 42 34" xmlns="http://www.w3.org/2000/svg">
    <style>
        @media (prefers-color-scheme: light) {
            path { fill: #1D4F91 !important; }
        }
        @media (prefers-color-scheme: dark) {
            path { fill: #B9D9EB; }
        }
    </style>
    <path d="M24.5779 10.8C24.1779 10.9 23.7779 10.8 23.4779 10.5L22.5779 9.9C23.4779 9.3 24.1779 8.3 24.1779 7.2C24.1779 5.6 22.9779 4.3 21.4779 4.1L22.6779 2.6C22.7779 2.4 22.7779 2.2 22.6779 2.1L21.1779 0.199997C21.1779 -2.86102e-06 21.0779 0 20.9779 0C20.8779 0 20.7779 -1.90735e-06 20.7779 0.0999985L19.2779 2C19.1779 2.1 19.1779 2.4 19.2779 2.5L20.4779 4C18.9779 4.2 17.7779 5.6 17.7779 7.1C17.7779 8.3 18.3779 9.3 19.3779 9.8L18.4779 10.4C18.1779 10.7 17.7779 10.8 17.3779 10.7C10.7779 8.6 4.87785 6.5 1.57785 9.8C-2.42215 13.7 2.27785 20 3.67785 22.6C4.67785 24.4 5.37785 26.5 5.37785 28.2H36.4779C36.4779 26.5 37.1779 24.4 38.1779 22.6C39.6779 20 44.2779 13.7 40.2779 9.8C37.0779 6.59999 31.1779 8.59999 24.5779 10.8ZM16.2779 26.2C15.0779 26.3 14.0779 25.2 13.6779 23.6L14.6779 21.3C14.7779 21 14.6779 20.8 14.5779 20.6L11.4779 17.5C11.2779 17.3 11.1779 17.3 11.0779 17.5L9.57785 20.6C9.47785 20.9 9.57785 21.1 9.77785 21.3L12.0779 23.7C12.5779 25.6 11.2779 26.2 10.5779 26.2C8.07785 26.2 6.07785 22.8 4.07785 19.3C2.07785 15.9 1.37785 13.4 2.87785 11.5C5.37785 8.3 11.9779 10.8 17.0779 13.2C17.0779 13.9 17.1779 14.8 17.6779 15.8C20.2779 21.8 18.4779 26 16.2779 26.2ZM37.9779 19.3C35.9779 22.8 33.9779 26.2 31.4779 26.2C30.7779 26.2 29.4779 25.5 29.9779 23.7L32.2779 21.3C32.4779 21.1 32.5779 20.9 32.4779 20.6L30.9779 17.5C30.8779 17.3 30.7779 17.3 30.5779 17.5L27.4779 20.6C27.2779 20.8 27.2779 21 27.3779 21.3L28.3779 23.6C27.9779 25.1 26.9779 26.2 25.7779 26.2C23.5779 26.1 21.6779 21.8 24.3779 15.8C24.8779 14.8 24.9779 13.9 24.9779 13.2C30.0779 10.9 36.6779 8.4 39.1779 11.5C40.5779 13.4 39.8779 15.9 37.9779 19.3ZM5.37785 33.1H36.4779V30.5H5.37785V33.1Z"/>
</svg>
