<svg class="logo" width="681" height="56" viewBox="0 0 681 56" xmlns="http://www.w3.org/2000/svg">
<path fill="currentcolor" d="M309.94 21.6667C313.926 21.6667 317.913 21.6667 322.021 21.6667C321.809 25.0278 321.809 25.0278 321.597 25.448C321.387 25.3787 321.177 25.3093 320.961 25.2379C320.891 24.7526 320.821 24.2674 320.749 23.7674C319.707 23.4959 318.678 23.534 317.61 23.5442C316.967 23.5485 316.324 23.5529 315.662 23.5573C315.662 25.4291 315.662 27.3008 315.662 29.2293C316.445 29.238 317.227 29.2466 318.034 29.2556C318.278 29.2594 318.523 29.2632 318.775 29.2672C318.971 29.2682 319.166 29.2693 319.367 29.2703C319.665 29.2736 319.665 29.2736 319.969 29.277C320.583 29.2255 321.04 29.0623 321.597 28.8092C321.623 30.1605 321.56 31.4598 321.385 32.8006C321.175 32.8699 320.965 32.9392 320.749 33.0106C320.657 32.6532 320.657 32.6532 320.564 32.2885C320.485 32.0415 320.406 31.7946 320.325 31.5401C319.853 31.3061 319.564 31.2925 319.04 31.271C318.871 31.2631 318.703 31.2553 318.529 31.2472C318.352 31.2398 318.176 31.2325 317.994 31.225C317.645 31.2106 317.296 31.1953 316.947 31.1791C316.792 31.1727 316.637 31.1663 316.478 31.1598C316.086 31.12 316.086 31.12 315.662 30.9099C315.65 31.829 315.642 32.748 315.636 33.6671C315.63 34.0571 315.63 34.0571 315.625 34.4549C315.624 34.7067 315.622 34.9586 315.621 35.218C315.619 35.4491 315.616 35.6801 315.614 35.9181C315.666 36.6287 315.808 37.1863 316.086 37.8423C316.894 38.3398 317.696 38.319 318.63 38.315C319.01 38.3166 319.01 38.3166 319.398 38.3183C320.103 38.2633 320.562 38.1918 321.173 37.8423C321.479 37.3931 321.479 37.3931 321.663 36.8707C321.732 36.699 321.801 36.5274 321.873 36.3505C321.922 36.2189 321.97 36.0872 322.021 35.9517C322.231 36.021 322.44 36.0903 322.657 36.1617C322.702 37.4088 322.596 38.5329 322.233 39.733C321.842 40.1199 321.211 39.9719 320.688 39.9736C320.549 39.9743 320.409 39.975 320.266 39.9757C319.802 39.9777 319.339 39.9781 318.876 39.9783C318.553 39.979 318.23 39.9797 317.908 39.9804C317.23 39.9817 316.551 39.9821 315.873 39.982C315.009 39.9819 314.144 39.9848 313.28 39.9884C312.612 39.9908 311.945 39.9912 311.277 39.9911C310.959 39.9913 310.641 39.9923 310.322 39.9939C305.636 40.0157 305.636 40.0157 304.182 38.8623C303.235 37.914 302.457 36.8225 301.674 35.7416C301.581 35.6142 301.488 35.4868 301.393 35.3556C299.766 33.1106 299.766 33.1106 299.766 32.5905C298.927 32.5905 298.087 32.5905 297.223 32.5905C297.241 33.5229 297.264 34.4549 297.289 35.3871C297.294 35.6523 297.298 35.9176 297.303 36.1909C297.315 36.5717 297.315 36.5717 297.326 36.9602C297.332 37.1945 297.337 37.4288 297.343 37.6702C297.388 38.2586 297.388 38.2586 297.71 38.6434C298.274 39.0334 298.894 39.1523 299.554 39.3128C299.554 39.4515 299.554 39.5901 299.554 39.733C298.691 39.9382 297.886 39.9673 297 39.9636C296.86 39.9633 296.721 39.963 296.577 39.9627C296.134 39.9615 295.692 39.9589 295.249 39.9562C294.947 39.9551 294.646 39.9542 294.344 39.9533C293.608 39.951 292.872 39.9474 292.136 39.943C292.066 39.6657 291.996 39.3885 291.924 39.1028C292.285 39.0183 292.285 39.0183 292.652 38.9321C293.026 38.8086 293.026 38.8086 293.408 38.6826C293.652 37.9555 293.649 37.3856 293.654 36.6183C293.655 36.4734 293.656 36.3286 293.657 36.1793C293.66 35.7005 293.661 35.2217 293.663 34.7429C293.664 34.4104 293.665 34.0779 293.666 33.7454C293.668 33.0488 293.67 32.3521 293.67 31.6555C293.672 30.7613 293.677 29.8673 293.683 28.9731C293.687 28.2867 293.688 27.6003 293.688 26.9138C293.689 26.5841 293.69 26.2543 293.693 25.9246C293.697 25.4643 293.696 25.0043 293.695 24.544C293.696 24.2819 293.697 24.0198 293.697 23.7497C293.672 23.5476 293.646 23.3454 293.619 23.1372C292.889 22.6548 292.361 22.6036 291.5 22.507C291.5 22.299 291.5 22.091 291.5 21.8767C292.91 21.8553 294.32 21.8407 295.73 21.8306C296.209 21.8264 296.688 21.8207 297.167 21.8133C297.858 21.8031 298.55 21.7984 299.241 21.7947C299.453 21.7903 299.664 21.786 299.882 21.7815C301.454 21.781 303.012 22.0083 304.212 23.0971C305.287 24.2748 305.354 25.2987 305.333 26.8586C305.189 28.6305 304.19 29.5428 302.888 30.6834C302.767 30.8275 302.646 30.9715 302.521 31.12C302.601 31.8153 302.891 32.221 303.336 32.7497C303.46 32.8975 303.583 33.0452 303.71 33.1975C303.843 33.3525 303.975 33.5074 304.111 33.6671C304.245 33.8264 304.38 33.9857 304.518 34.1498C306.658 36.9856 306.658 36.9856 309.516 38.8927C309.882 38.907 310.249 38.9105 310.615 38.9058C310.806 38.9039 310.997 38.902 311.194 38.9001C311.34 38.8976 311.485 38.8952 311.635 38.8927C311.96 38.2489 311.928 37.5642 311.965 36.856C311.974 36.6893 311.983 36.5226 311.992 36.3508C312.086 34.403 312.091 32.4553 312.087 30.5055C312.086 29.8821 312.087 29.2587 312.088 28.6352C312.089 26.6523 312.078 24.6892 311.847 22.717C311.218 22.6477 310.588 22.5784 309.94 22.507C309.94 22.2297 309.94 21.9524 309.94 21.6667ZM297.011 23.5573C296.951 24.089 296.932 24.5686 296.941 25.1001C296.942 25.2523 296.942 25.4046 296.942 25.5615C296.944 25.8836 296.947 26.2057 296.951 26.5278C296.958 27.0216 296.96 27.5152 296.961 28.0091C296.963 28.3217 296.965 28.6344 296.968 28.947C296.969 29.0952 296.969 29.2433 296.97 29.396C296.971 30.1792 296.971 30.1792 297.223 30.9099C298.264 31.3228 299.421 31.2385 300.455 30.8836C301.331 30.2913 301.765 29.5875 302.098 28.5991C302.274 26.487 302.274 26.487 301.462 24.6077C300.474 23.6101 299.798 23.172 298.375 23.0978C297.621 23.0772 297.621 23.0772 297.011 23.5573Z"/>
<path fill="currentColor" d="M59.6182 18C60.1024 18.0336 60.1024 18.0336 60.6678 18.2113C61.0135 18.704 61.0135 18.704 61.3173 19.3646C61.4325 19.6101 61.5478 19.8557 61.6665 20.1086C61.7885 20.3788 61.9105 20.6489 62.0324 20.9191C62.1608 21.1963 62.2896 21.4733 62.4187 21.7502C62.753 22.4695 63.0828 23.1908 63.4115 23.9127C63.7204 24.5889 64.0335 25.2632 64.3464 25.9376C64.8064 26.9297 65.2641 27.9228 65.7199 28.9169C66.4762 30.5656 67.2441 32.2087 68.0152 33.8503C68.5345 33.3275 68.7311 32.8268 69.032 32.1506C69.091 32.0186 69.1501 31.8866 69.211 31.7506C69.3399 31.4623 69.4685 31.1738 69.5967 30.8851C69.8015 30.4249 70.0079 29.9655 70.2148 29.5064C70.9288 27.9208 71.6377 26.3331 72.34 24.7422C72.6763 23.9823 73.0159 23.224 73.3562 22.4659C73.5215 22.0954 73.6854 21.7242 73.8479 21.3524C74.0764 20.8298 74.3097 20.3097 74.5441 19.7898C74.6114 19.6327 74.6786 19.4756 74.7479 19.3138C74.9464 18.8813 74.9464 18.8813 75.3625 18.2113C75.9385 18.007 75.9385 18.007 76.4121 18C76.7049 19.1172 76.9315 20.2199 77.0849 21.3657C77.1068 21.5236 77.1288 21.6816 77.1513 21.8444C77.1983 22.1842 77.2449 22.5242 77.2912 22.8642C77.3645 23.4038 77.439 23.9433 77.5138 24.4827C77.6724 25.6282 77.8295 26.7739 77.9865 27.9197C78.1686 29.2477 78.3514 30.5756 78.5353 31.9034C78.6083 32.432 78.6803 32.9608 78.7523 33.4896C79.1021 36.1343 79.1021 36.1343 79.7709 38.7111C80.6715 38.8506 81.572 38.9901 82.4999 39.1338C82.4999 39.343 82.4999 39.5522 82.4999 39.7678C81.626 39.938 80.8269 39.9959 79.9382 39.961C79.6979 39.9517 79.4576 39.9425 79.21 39.9329C78.8382 39.9166 78.8382 39.9166 78.4589 39.8999C78.0822 39.886 78.0822 39.886 77.6979 39.8718C75.8375 39.7955 75.8375 39.7956 75.3625 39.5565C75.3905 39.3739 75.3905 39.3739 75.419 39.1876C75.6144 37.6721 75.4854 36.2936 75.2715 34.7865C75.2221 34.4181 75.2221 34.4181 75.1717 34.0422C75.067 33.2646 74.959 32.4876 74.8508 31.7105C74.7788 31.1806 74.7071 30.6506 74.6356 30.1206C74.4606 28.8274 74.2828 27.5347 74.103 26.2422C73.0943 28.2528 72.1083 30.2696 71.1771 32.3181C71.0174 32.6667 71.0174 32.6667 70.8545 33.0224C70.3436 34.1402 69.8401 35.2605 69.3526 36.3889C69.268 36.5833 69.1834 36.7778 69.0963 36.9781C68.9397 37.3397 68.785 37.7023 68.6327 38.0658C68.0017 39.5205 68.0018 39.5205 67.1755 39.9791C66.5792 39.2671 66.1214 38.572 65.7068 37.7403C65.5908 37.5079 65.4748 37.2754 65.3552 37.0359C65.2328 36.7867 65.1105 36.5375 64.9844 36.2807C64.9212 36.1531 64.8581 36.0254 64.793 35.8939C63.6338 33.5494 62.5547 31.1712 61.5076 28.7741C61.4001 28.5284 61.2927 28.2826 61.182 28.0295C61.0875 27.8115 60.9929 27.5935 60.8955 27.3689C60.7106 26.8951 60.7106 26.8951 60.4579 26.6649C60.2768 28.0444 60.0977 29.4242 59.9198 30.8042C59.8591 31.273 59.798 31.7418 59.7365 32.2105C59.6478 32.8866 59.5607 33.5628 59.4739 34.2392C59.4463 34.4466 59.4188 34.6541 59.3904 34.8678C59.2356 36.0878 59.1146 37.2703 59.1984 38.4998C59.9215 38.9851 60.4449 39.0366 61.2976 39.1338C61.2976 39.343 61.2976 39.5522 61.2976 39.7678C60.5169 39.9502 59.7981 40.0039 58.9975 39.9998C58.7641 39.9991 58.5307 39.9984 58.2902 39.9977C58.0487 39.9959 57.8072 39.9942 57.5583 39.9924C57.19 39.9909 57.19 39.9909 56.8142 39.9895C56.2094 39.987 55.6047 39.9835 54.9999 39.9791C54.9999 39.7002 54.9999 39.4212 54.9999 39.1338C55.6234 39.0292 55.6234 39.0292 56.2594 38.9225C56.8115 36.0818 57.2654 33.2304 57.6789 30.3666C57.7038 30.1939 57.7288 30.0212 57.7545 29.8432C57.9351 28.5902 58.1142 27.337 58.2931 26.0837C58.4742 24.8153 58.6559 23.547 58.8387 22.2789C58.9111 21.7753 58.9826 21.2716 59.054 20.7679C59.0979 20.4626 59.1418 20.1572 59.1858 19.8519C59.2238 19.5853 59.2619 19.3187 59.301 19.044C59.4083 18.4227 59.4083 18.4227 59.6182 18Z"/>
<path fill="currentColor" d="M204.487 21.6667C204.993 21.6987 204.993 21.6987 205.545 21.8747C205.861 22.2806 205.861 22.2806 206.122 22.8188C206.221 23.0189 206.32 23.2189 206.422 23.4251C206.525 23.6428 206.628 23.8605 206.735 24.0848C206.844 24.3083 206.954 24.5317 207.067 24.762C207.295 25.2297 207.522 25.6982 207.747 26.1674C208.066 26.8311 208.389 27.4924 208.714 28.1532C209.792 30.3504 210.847 32.558 211.891 34.7713C213.203 32.2071 214.487 29.63 215.765 27.0489C216.049 26.4758 216.333 25.9026 216.616 25.3296C216.791 24.9768 216.966 24.6239 217.141 24.2711C217.572 23.4005 218.006 22.5318 218.449 21.6667C218.798 21.6667 219.147 21.6667 219.506 21.6667C219.946 23.7694 220.283 25.882 220.597 28.0061C220.637 28.2771 220.678 28.5481 220.719 28.8273C220.887 29.9619 221.054 31.0966 221.218 32.2318C221.3 32.7981 221.384 33.3643 221.468 33.9302C221.547 34.4588 221.624 34.9875 221.699 35.5165C221.938 37.2079 221.938 37.2079 222.68 38.7235C223.15 38.9591 223.15 38.9591 223.671 39.0095C223.842 39.0369 224.013 39.0642 224.189 39.0924C224.319 39.1079 224.449 39.1235 224.583 39.1395C224.583 39.3455 224.583 39.5514 224.583 39.7636C223.868 39.9822 223.244 39.9801 222.498 39.9464C222.144 39.9313 222.144 39.9313 221.783 39.9159C221.538 39.9042 221.293 39.8926 221.04 39.8806C220.792 39.8697 220.543 39.8588 220.287 39.8476C219.674 39.8207 219.062 39.7926 218.449 39.7636C218.449 39.489 218.449 39.2144 218.449 38.9315C218.336 36.7081 218.016 34.5154 217.695 32.3142C217.645 31.9658 217.595 31.6173 217.545 31.2689C217.424 30.4254 217.302 29.5822 217.18 28.739C216.806 29.4981 216.806 29.4981 216.433 30.2573C216.102 30.9311 215.771 31.6047 215.438 32.2778C214.792 33.5892 214.153 34.9024 213.54 36.2298C213.438 36.4498 213.335 36.6698 213.229 36.8965C213.037 37.3101 212.847 37.7252 212.661 38.1418C212.532 38.4185 212.532 38.4185 212.399 38.7007C212.326 38.8617 212.253 39.0226 212.178 39.1885C211.891 39.5555 211.891 39.5555 211.33 39.713C211.084 39.738 211.084 39.738 210.833 39.7636C210.103 38.6443 209.427 37.5083 208.797 36.3314C208.664 36.0835 208.664 36.0835 208.529 35.8306C207.375 33.6471 206.355 31.4004 205.333 29.155C205.013 30.7826 204.767 32.4104 204.566 34.0563C204.538 34.2766 204.51 34.4968 204.48 34.7238C204.315 36.068 204.248 37.3696 204.276 38.7235C204.834 38.9294 205.392 39.1354 205.968 39.3475C205.968 39.4848 205.968 39.6221 205.968 39.7636C205.234 39.9268 204.556 39.9982 203.804 39.9992C203.497 39.9996 203.497 39.9996 203.184 40C202.972 39.9992 202.761 39.9984 202.544 39.9976C202.223 39.9988 202.223 39.9988 201.896 40C201.692 39.9997 201.489 39.9995 201.279 39.9992C201.092 39.999 200.906 39.9987 200.715 39.9985C200.256 39.9716 200.256 39.9716 199.833 39.7636C199.833 39.5576 199.833 39.3517 199.833 39.1395C200.392 39.0709 200.95 39.0022 201.526 38.9315C201.572 38.6442 201.572 38.6442 201.619 38.3512C201.663 38.0755 201.707 37.7998 201.751 37.5242C201.775 37.3734 201.799 37.2227 201.824 37.0673C201.962 36.2106 202.099 35.354 202.237 34.4973C202.296 34.1296 202.356 33.7618 202.415 33.3941C202.445 33.2051 202.476 33.0161 202.507 32.8213C202.705 31.5859 202.903 30.3502 203.099 29.1144C203.233 28.2717 203.368 27.429 203.503 26.5864C203.569 26.1748 203.634 25.7633 203.699 25.3517C203.79 24.774 203.883 24.1966 203.976 23.6192C204.003 23.4451 204.03 23.2711 204.058 23.0918C204.251 21.8984 204.251 21.8984 204.487 21.6667Z"/>
<path fill="currentColor" d="M286.074 23.2252C287.982 24.5954 289.071 26.2605 289.582 28.5304C289.843 31.4463 289.574 34.1606 287.733 36.5519C285.917 38.64 283.673 39.7067 280.914 39.9724C278.229 40.1278 275.617 39.6503 273.491 37.942C271.853 36.4868 270.628 34.5891 270.43 32.3596C270.337 29.1667 270.683 26.7784 272.906 24.2963C276.327 21.135 282.157 20.8821 286.074 23.2252ZM275.753 24.498C274.231 26.1369 273.791 28.3917 273.865 30.5694C274.055 32.475 274.445 34.1999 275.55 35.7888C275.697 36.0008 275.844 36.2129 275.995 36.4314C277.355 37.78 278.781 38.4304 280.685 38.4728C282.128 38.4552 283.019 38.2174 284.078 37.2403C285.263 35.9816 285.793 34.6652 285.985 32.9535C286.002 32.8046 286.018 32.6558 286.036 32.5025C286.259 30.1598 285.923 27.7189 284.516 25.7762C283.35 24.3914 282.046 23.4257 280.227 23.0992C278.586 22.9909 276.998 23.4179 275.753 24.498Z"/>
<path fill="currentColor" d="M195.153 23.2252C197.152 24.5954 198.293 26.2605 198.828 28.5304C199.101 31.4463 198.82 34.1606 196.891 36.5519C194.988 38.64 192.638 39.7067 189.747 39.9724C186.935 40.1278 184.198 39.6503 181.971 37.942C180.254 36.4868 178.972 34.5891 178.764 32.3596C178.666 29.1667 179.029 26.7784 181.358 24.2963C184.942 21.135 191.049 20.8821 195.153 23.2252ZM184.341 24.498C182.746 26.1369 182.285 28.3917 182.363 30.5694C182.562 32.475 182.97 34.1999 184.128 35.7888C184.282 36.0008 184.435 36.2129 184.594 36.4314C186.019 37.78 187.513 38.4304 189.507 38.4728C191.019 38.4552 191.953 38.2174 193.061 37.2403C194.304 35.9816 194.858 34.6652 195.059 32.9535C195.077 32.8046 195.095 32.6558 195.113 32.5025C195.346 30.1598 194.995 27.7189 193.521 25.7762C192.299 24.3914 190.933 23.4257 189.028 23.0992C187.308 22.9909 185.645 23.4179 184.341 24.498Z"/>
<path fill="currentColor" d="M146.74 23.2252C148.649 24.5954 149.738 26.2605 150.248 28.5304C150.51 31.4463 150.241 34.1606 148.4 36.5519C146.584 38.64 144.34 39.7067 141.58 39.9724C138.896 40.1278 136.284 39.6503 134.158 37.942C132.519 36.4868 131.295 34.5891 131.097 32.3596C131.004 29.1667 131.35 26.7784 133.573 24.2963C136.994 21.135 142.824 20.8821 146.74 23.2252ZM136.42 24.498C134.898 26.1369 134.458 28.3917 134.532 30.5694C134.722 32.475 135.112 34.1999 136.217 35.7888C136.364 36.0008 136.51 36.2129 136.662 36.4314C138.022 37.78 139.448 38.4304 141.352 38.4728C142.795 38.4552 143.686 38.2174 144.744 37.2403C145.93 35.9816 146.46 34.6652 146.652 32.9535C146.668 32.8046 146.685 32.6558 146.702 32.5025C146.925 30.1598 146.59 27.7189 145.183 25.7762C144.016 24.3914 142.712 23.4257 140.894 23.0992C139.253 22.9909 137.665 23.4179 136.42 24.498Z"/>
<path fill="currentColor" d="M112.75 21.7619C114.157 21.7405 115.564 21.7258 116.972 21.7158C117.45 21.7115 117.928 21.7058 118.406 21.6985C119.096 21.6882 119.786 21.6835 120.476 21.6798C120.687 21.6755 120.898 21.6711 121.116 21.6667C122.685 21.6662 124.239 21.8936 125.437 22.9833C126.51 24.162 126.577 25.1867 126.556 26.7478C126.412 28.5211 125.415 29.4343 124.116 30.5758C123.995 30.7199 123.874 30.8641 123.75 31.0127C123.829 31.7086 124.119 32.1146 124.563 32.6437C124.686 32.7916 124.81 32.9395 124.937 33.0919C125.068 33.247 125.2 33.4021 125.336 33.5619C125.471 33.7213 125.605 33.8807 125.743 34.045C128.359 37.3316 128.359 37.3316 132 39.2122C132 39.3509 132 39.4897 132 39.6327C130.659 40.299 128.385 39.9214 126.957 39.5752C125.059 38.9408 124.02 37.1824 122.904 35.638C122.811 35.5106 122.719 35.3831 122.623 35.2517C121 33.0049 121 33.0049 121 32.4844C120.162 32.4844 119.325 32.4844 118.461 32.4844C118.48 33.4175 118.502 34.3503 118.528 35.2832C118.532 35.5487 118.537 35.8142 118.542 36.0877C118.553 36.4688 118.553 36.4688 118.565 36.8576C118.57 37.0921 118.576 37.3266 118.582 37.5683C118.626 38.1571 118.626 38.1571 118.948 38.5422C119.51 38.9326 120.129 39.0515 120.788 39.2122C120.788 39.3509 120.788 39.4897 120.788 39.6327C119.927 39.838 119.124 39.8672 118.239 39.8634C118.1 39.8631 117.96 39.8628 117.817 39.8625C117.375 39.8614 116.933 39.8587 116.492 39.8561C116.191 39.855 115.89 39.854 115.589 39.8532C114.854 39.8509 114.119 39.8472 113.385 39.8429C113.315 39.5654 113.245 39.2879 113.173 39.0019C113.533 38.9174 113.533 38.9174 113.9 38.8311C114.273 38.7075 114.273 38.7075 114.654 38.5814C114.898 37.8537 114.895 37.2834 114.899 36.5155C114.9 36.3705 114.901 36.2255 114.903 36.0761C114.906 35.5969 114.907 35.1177 114.908 34.6386C114.91 34.3058 114.911 33.973 114.912 33.6403C114.914 32.943 114.915 32.2458 114.916 31.5486C114.917 30.6537 114.922 29.7589 114.928 28.8641C114.932 28.1771 114.933 27.4901 114.934 26.8031C114.934 26.4731 114.936 26.1431 114.939 25.8131C114.942 25.3525 114.942 24.892 114.941 24.4314C114.941 24.1691 114.942 23.9067 114.943 23.6364C114.917 23.4341 114.892 23.2318 114.865 23.0234C114.137 22.5406 113.609 22.4894 112.75 22.3927C112.75 22.1845 112.75 21.9764 112.75 21.7619ZM118.25 23.4439C118.191 23.976 118.171 24.456 118.181 24.9879C118.181 25.1403 118.181 25.2927 118.182 25.4497C118.183 25.7721 118.186 26.0944 118.19 26.4168C118.197 26.911 118.199 27.405 118.2 27.8993C118.202 28.2122 118.204 28.5251 118.207 28.838C118.208 28.9862 118.209 29.1345 118.21 29.2873C118.211 30.0711 118.211 30.0711 118.461 30.8024C119.501 31.2157 120.655 31.1313 121.687 30.7761C122.562 30.1833 122.995 29.479 123.327 28.4897C123.503 26.3759 123.503 26.3759 122.692 24.4951C121.707 23.4967 121.032 23.0583 119.612 22.984C118.859 22.9634 118.859 22.9634 118.25 23.4439Z"/>
<path fill="currentColor" d="M152.167 21.7853C153.521 21.7593 154.875 21.7404 156.229 21.7278C156.689 21.7226 157.149 21.7154 157.609 21.7063C158.273 21.6935 158.937 21.6876 159.602 21.683C159.805 21.6776 160.007 21.6722 160.216 21.6667C161.721 21.6661 162.877 22.0204 164.131 22.8326C164.864 23.5875 165.054 24.3101 165.11 25.333C165.041 26.7794 164.467 27.7834 163.424 28.8022C163.226 28.975 163.029 29.1478 162.825 29.3258C162.949 29.3971 163.073 29.4684 163.2 29.5419C164.755 30.4818 166.173 31.564 166.741 33.3056C166.923 34.9 166.928 36.4027 165.871 37.7042C164.396 39.2596 162.869 39.8514 160.716 39.9976C159.675 40.013 158.644 39.9509 157.606 39.8846C155.937 39.7797 154.274 39.7791 152.602 39.7988C152.602 39.5223 152.602 39.2458 152.602 38.961C153.355 38.7536 153.355 38.7536 154.124 38.542C154.368 37.7876 154.372 37.0795 154.377 36.2924C154.378 36.1523 154.379 36.0122 154.38 35.8679C154.383 35.4062 154.385 34.9446 154.386 34.483C154.387 34.1616 154.389 33.8403 154.39 33.519C154.392 32.8462 154.393 32.1734 154.394 31.5007C154.395 30.6381 154.401 29.7755 154.407 28.9129C154.411 28.2497 154.412 27.5865 154.412 26.9232C154.413 26.6051 154.415 26.287 154.418 25.9689C154.421 25.5247 154.421 25.0806 154.419 24.6363C154.42 24.3835 154.421 24.1306 154.422 23.8701C154.393 23.2583 154.393 23.2583 154.061 22.8598C153.473 22.4855 152.856 22.4763 152.167 22.4137C152.167 22.2063 152.167 21.999 152.167 21.7853ZM157.822 23.2515C157.803 23.6704 157.799 24.0899 157.801 24.5091C157.802 24.7636 157.803 25.0181 157.803 25.2803C157.805 25.5482 157.807 25.8162 157.809 26.0923C157.81 26.3611 157.811 26.6299 157.812 26.9068C157.814 27.5735 157.818 28.2402 157.822 28.9069C159.029 29.2761 159.675 29.3836 160.868 28.9069C161.58 28.4437 161.818 27.9661 162.051 27.192C162.257 26.1122 162.049 25.2638 161.52 24.2988C161.036 23.7526 160.663 23.3622 159.998 23.0421C159.667 23.0222 159.336 23.0149 159.005 23.0159C158.83 23.0154 158.655 23.0148 158.474 23.0143C158.04 22.996 158.04 22.996 157.822 23.2515ZM157.822 30.7921C157.767 31.7028 157.782 32.616 157.782 33.5281C157.779 33.7829 157.776 34.0376 157.774 34.3001C157.771 35.6428 157.798 36.8482 158.257 38.1231C159.104 38.7157 160.292 38.6811 161.303 38.542C162.265 38.0787 162.825 37.6066 163.261 36.6569C163.611 35.3081 163.495 34.0479 162.761 32.8425C162.061 31.9078 161.301 31.1052 160.215 30.5826C159.849 30.5626 159.481 30.5554 159.114 30.5564C158.918 30.5559 158.723 30.5553 158.522 30.5548C158.046 30.5308 158.046 30.5308 157.822 30.7921Z"/>
<path fill="currentColor" d="M260.898 18.0003C261.098 18.0003 261.098 18.0003 261.302 18.0004C263.414 18.0041 265.414 18.1698 267.465 18.6909C267.471 19.3554 267.474 20.02 267.477 20.6845C267.479 20.8712 267.481 21.0578 267.482 21.2501C267.486 22.2977 267.437 23.2877 267.263 24.32C267.062 24.32 266.862 24.32 266.656 24.32C266.622 24.1841 266.588 24.0481 266.552 23.908C266.09 22.0929 266.09 22.0929 264.895 20.7383C262.798 19.562 260.189 19.3508 257.892 19.9679C256.143 20.6071 254.961 21.7866 254.129 23.4861C253.05 26.3433 253.064 29.6393 254.066 32.5162C255.086 34.8906 256.791 36.4271 259.049 37.4589C260.971 38.1928 263.155 38.0378 265.04 37.2463C266.076 36.452 266.48 35.3552 266.858 34.119C267.259 34.2222 267.259 34.2222 267.667 34.3275C267.609 34.8967 267.55 35.4656 267.49 36.0345C267.474 36.1948 267.458 36.3551 267.442 36.5203C267.349 37.3737 267.258 38.1461 266.858 38.9142C264.527 40.4111 260.239 40.0636 257.586 39.613C255.129 38.9924 252.854 37.6669 251.3 35.5784C249.516 32.504 248.917 29.114 249.62 25.5693C250.012 24.1446 250.632 22.9879 251.502 21.8182C251.677 21.5473 251.677 21.5473 251.856 21.2709C254.351 18.5536 257.433 17.9859 260.898 18.0003Z"/>
<path fill="currentColor" d="M109.983 21.8095C109.918 23.4083 109.853 25.0071 109.787 26.6543C109.592 26.6543 109.398 26.6543 109.198 26.6543C109.13 26.4181 109.13 26.4181 109.061 26.1771C108.592 24.5617 108.592 24.5617 107.432 23.4946C106.254 22.9414 105.293 22.7533 104.011 22.7705C103.847 22.772 103.682 22.7734 103.513 22.7749C102.006 22.8171 101.022 23.1635 99.8292 24.1529C98.2731 26.2876 97.8486 28.6691 98.1247 31.328C98.3809 33.349 99.1183 35.1865 100.565 36.5547C101.132 36.9599 101.713 37.3 102.331 37.6079C102.473 37.685 102.615 37.7621 102.762 37.8416C103.555 38.1121 104.311 38.1151 105.139 38.1213C105.379 38.1317 105.379 38.1317 105.624 38.1423C106.844 38.1538 107.685 37.8449 108.609 36.9759C108.947 36.4835 108.947 36.4835 109.1 35.9622C109.158 35.7958 109.217 35.6293 109.278 35.4578C109.316 35.3332 109.355 35.2085 109.394 35.0801C109.588 35.0801 109.783 35.0801 109.983 35.0801C110.024 36.4372 110.026 37.7899 109.59 39.0824C108.35 40.2387 106.608 39.9711 105.065 39.9777C104.816 39.982 104.566 39.9863 104.309 39.9908C101.468 40.0033 98.776 39.2732 96.6532 37.1339C94.714 34.8937 94.3657 32.3256 94.4221 29.3861C94.5157 27.1757 95.2399 25.5189 96.6409 23.9159C96.758 23.7815 96.8751 23.6471 96.9958 23.5086C99.7893 20.6092 106.453 19.9149 109.983 21.8095Z"/>
<path fill="currentColor" d="M226.417 21.6667C230.15 21.6667 233.883 21.6667 237.729 21.6667C237.53 25.0337 237.53 25.0337 237.332 25.4545C237.135 25.3851 236.939 25.3156 236.736 25.2441C236.638 24.5149 236.638 24.5149 236.538 23.771C235.563 23.4991 234.598 23.5373 233.598 23.5474C232.997 23.5518 232.395 23.5561 231.775 23.5606C231.775 25.4356 231.775 27.3106 231.775 29.2424C232.508 29.2511 233.24 29.2598 233.995 29.2687C234.225 29.2725 234.454 29.2764 234.69 29.2803C234.873 29.2814 235.056 29.2824 235.244 29.2835C235.523 29.2868 235.523 29.2868 235.808 29.2902C236.382 29.2385 236.81 29.0751 237.332 28.8215C237.356 30.1752 237.297 31.4768 237.133 32.8198C236.937 32.8893 236.74 32.9587 236.538 33.0303C236.481 32.7916 236.423 32.5528 236.364 32.3069C236.291 32.0595 236.217 31.8121 236.141 31.5572C235.699 31.3227 235.429 31.3092 234.938 31.2876C234.78 31.2797 234.622 31.2719 234.459 31.2638C234.294 31.2564 234.128 31.2491 233.958 31.2416C233.631 31.2271 233.305 31.2118 232.978 31.1955C232.833 31.1891 232.688 31.1828 232.539 31.1762C232.172 31.1363 232.172 31.1363 231.775 30.9259C231.763 31.8465 231.756 32.7672 231.75 33.6879C231.747 33.9483 231.744 34.2087 231.74 34.477C231.739 34.7293 231.738 34.9816 231.736 35.2415C231.734 35.4729 231.732 35.7044 231.73 35.9428C231.778 36.6546 231.912 37.2132 232.172 37.8703C232.928 38.3687 233.679 38.3478 234.553 38.3438C234.791 38.3449 235.028 38.346 235.273 38.3471C235.933 38.292 236.363 38.2204 236.935 37.8703C237.221 37.4203 237.221 37.4203 237.394 36.8971C237.458 36.7251 237.523 36.5531 237.59 36.3759C237.636 36.2441 237.681 36.1122 237.729 35.9764C237.925 36.0458 238.122 36.1153 238.324 36.1868C238.367 37.4361 238.267 38.5621 237.927 39.7643C237.729 39.9747 237.729 39.9747 237.283 40C237.086 39.9995 236.889 39.9991 236.686 39.9986C236.463 39.9986 236.241 39.9986 236.012 39.9985C235.649 39.9969 235.649 39.9969 235.278 39.9952C235.032 39.9949 234.785 39.9946 234.532 39.9943C233.875 39.9934 233.219 39.9915 232.563 39.9891C231.894 39.987 231.225 39.986 230.556 39.985C229.242 39.9826 227.929 39.9791 226.615 39.9747C226.615 39.6969 226.615 39.4191 226.615 39.1329C226.84 39.1069 227.065 39.0809 227.297 39.054C227.647 38.9889 227.647 38.9889 228.004 38.9225C228.308 38.2776 228.279 37.5917 228.313 36.8823C228.321 36.7153 228.33 36.5483 228.338 36.3762C228.427 34.425 228.431 32.4739 228.427 30.5208C228.426 29.8963 228.427 29.2718 228.428 28.6473C228.429 26.661 228.419 24.6944 228.203 22.7189C227.613 22.6494 227.024 22.58 226.417 22.5084C226.417 22.2306 226.417 21.9529 226.417 21.6667Z"/>
<path fill="currentColor" d="M168.667 21.6667C170.896 21.6667 173.125 21.6667 175.421 21.6667C175.421 21.8774 175.421 22.0881 175.421 22.3052C174.912 22.4457 174.402 22.5861 173.877 22.7309C173.671 24.9573 173.654 27.1705 173.659 29.4063C173.66 30.0025 173.659 30.5987 173.658 31.195C173.657 33.0737 173.675 34.9518 173.746 36.829C173.752 37.0709 173.752 37.0709 173.759 37.3177C173.775 37.8115 173.775 37.8115 173.877 38.481C174.437 38.8926 174.629 38.9708 175.264 39.0397C175.628 39.0792 175.628 39.0792 176 39.1195C176 39.3303 176 39.541 176 39.7581C175.206 39.9681 174.461 39.9984 173.646 39.9992C173.515 39.9994 173.385 39.9996 173.25 39.9998C172.976 39.9999 172.702 39.9995 172.428 39.9986C172.007 39.9975 171.587 39.9986 171.166 40C170.899 39.9999 170.632 39.9996 170.365 39.9992C170.123 39.9989 169.88 39.9987 169.63 39.9984C169.053 39.9709 169.053 39.9709 168.667 39.7581C168.667 39.5474 168.667 39.3366 168.667 39.1195C169.176 39.0493 169.686 38.9791 170.211 38.9067C170.366 36.0577 170.434 33.2193 170.429 30.3653C170.428 29.7351 170.429 29.1049 170.43 28.4746C170.434 25.5966 170.434 25.5966 170.211 22.7309C169.701 22.5904 169.192 22.4499 168.667 22.3052C168.667 22.0945 168.667 21.8838 168.667 21.6667Z"/>
<path fill="currentColor" d="M83.4166 21.6667C85.9241 21.6667 88.4317 21.6667 91.0153 21.6667C91.0153 21.8774 91.0153 22.0881 91.0153 22.3052C90.4421 22.4457 89.8689 22.5861 89.2784 22.7309C89.0465 24.9573 89.0279 27.1705 89.033 29.4063C89.0342 30.0025 89.033 30.5987 89.0316 31.195C89.0305 33.0737 89.0514 34.9518 89.1309 36.829C89.138 37.0709 89.138 37.0709 89.1453 37.3177C89.1631 37.8115 89.1631 37.8115 89.2784 38.481C89.9082 38.8926 90.1244 38.9708 90.8389 39.0397C91.2486 39.0792 91.2486 39.0792 91.6666 39.1195C91.6666 39.3303 91.6666 39.541 91.6666 39.7581C90.7732 39.9681 89.9355 39.9984 89.0181 39.9992C88.8712 39.9994 88.7244 39.9996 88.5732 39.9998C88.2646 39.9999 87.9561 39.9995 87.6475 39.9986C87.1745 39.9975 86.7014 39.9986 86.2283 40C85.928 39.9999 85.6276 39.9996 85.3273 39.9992C85.0545 39.9989 84.7817 39.9987 84.5007 39.9984C83.8508 39.9709 83.8508 39.9709 83.4166 39.7581C83.4166 39.5474 83.4166 39.3366 83.4166 39.1195C83.9897 39.0493 84.5629 38.9791 85.1534 38.9067C85.3282 36.0577 85.4052 33.2193 85.3988 30.3653C85.3977 29.7351 85.3988 29.1049 85.4002 28.4746C85.4048 25.5966 85.4049 25.5966 85.1534 22.7309C84.5803 22.5904 84.0071 22.4499 83.4166 22.3052C83.4166 22.0945 83.4166 21.8838 83.4166 21.6667Z"/>
<path fill="currentColor" d="M24.5778 21.8C24.1778 21.9 23.7778 21.8 23.4778 21.5L22.5778 20.9C23.4778 20.3 24.1778 19.3 24.1778 18.2C24.1778 16.6 22.9778 15.3 21.4778 15.1L22.6778 13.6C22.7778 13.4 22.7778 13.2 22.6778 13.1L21.1778 11.2C21.1778 11 21.0778 11 20.9778 11C20.8778 11 20.7778 11 20.7778 11.1L19.2778 13C19.1778 13.1 19.1778 13.4 19.2778 13.5L20.4778 15C18.9778 15.2 17.7778 16.6 17.7778 18.1C17.7778 19.3 18.3778 20.3 19.3778 20.8L18.4778 21.4C18.1778 21.7 17.7778 21.8 17.3778 21.7C10.7778 19.6 4.87785 17.5 1.57785 20.8C-2.42215 24.7 2.27785 31 3.67785 33.6C4.67785 35.4 5.37786 37.5 5.37786 39.2H36.4778C36.4778 37.5 37.1778 35.4 38.1778 33.6C39.6778 31 44.2778 24.7 40.2778 20.8C37.0778 17.6 31.1778 19.6 24.5778 21.8ZM16.2778 37.2C15.0778 37.3 14.0779 36.2 13.6779 34.6L14.6779 32.3C14.7779 32 14.6779 31.8 14.5779 31.6L11.4778 28.5C11.2778 28.3 11.1778 28.3 11.0778 28.5L9.57784 31.6C9.47784 31.9 9.57785 32.1 9.77785 32.3L12.0778 34.7C12.5778 36.6 11.2778 37.2 10.5778 37.2C8.07784 37.2 6.07785 33.8 4.07785 30.3C2.07785 26.9 1.37786 24.4 2.87786 22.5C5.37786 19.3 11.9778 21.8 17.0778 24.2C17.0778 24.9 17.1778 25.8 17.6778 26.8C20.2778 32.8 18.4778 37 16.2778 37.2ZM37.9778 30.3C35.9778 33.8 33.9778 37.2 31.4778 37.2C30.7778 37.2 29.4778 36.5 29.9778 34.7L32.2778 32.3C32.4778 32.1 32.5778 31.9 32.4778 31.6L30.9778 28.5C30.8778 28.3 30.7778 28.3 30.5778 28.5L27.4778 31.6C27.2778 31.8 27.2778 32 27.3778 32.3L28.3778 34.6C27.9778 36.1 26.9778 37.2 25.7778 37.2C23.5778 37.1 21.6778 32.8 24.3778 26.8C24.8778 25.8 24.9778 24.9 24.9778 24.2C30.0778 21.9 36.6778 19.4 39.1778 22.5C40.5778 24.4 39.8778 26.9 37.9778 30.3ZM5.37786 44.1H36.4778V41.5H5.37786V44.1Z"/>
<path fill="currentColor" d="M339 55.1H340.2V0H339V55.1ZM365.5 39.6C365.1 39.6 364.5 39.5 364.1 39.5C363.3 39.4 363.1 38.9 363 38.2C362.9 37 362.9 34.9 362.9 32.3V27.5C362.9 23.4 362.9 22.6 363 21.8C363.1 20.9 363.3 20.4 364 20.3C364.3 20.2 364.5 20.2 364.8 20.2C365.1 20.2 365.2 20.1 365.2 19.9C365.2 19.7 365 19.7 364.6 19.7C363.6 19.7 362 19.8 361.3 19.8C360.5 19.8 358.8 19.7 357.8 19.7C357.4 19.7 357.2 19.8 357.2 19.9C357.2 20.1 357.4 20.2 357.6 20.2C357.9 20.2 358.3 20.2 358.6 20.3C359.2 20.4 359.5 20.9 359.5 21.8C359.6 22.7 359.6 23.4 359.6 27.5V32.3C359.6 34.9 359.6 37.1 359.5 38.2C359.4 39 359.3 39.4 358.7 39.5C358.5 39.6 358.1 39.6 357.7 39.6C357.4 39.6 357.3 39.7 357.3 39.8C357.3 40 357.5 40.1 357.8 40.1C358.9 40.1 360.6 40 361.2 40C361.9 40 363.6 40.1 365.4 40.1C365.7 40.1 365.9 40 365.9 39.8C365.9 39.6 365.8 39.6 365.5 39.6ZM388.9 22.7C387.7 22.7 386.8 22.8 386.6 22.8C386.1 22.8 384.8 22.7 383.6 22.7C383.2 22.7 383 22.7 383 22.9C383 23 383.1 23.1 383.4 23.1C383.7 23.1 384.3 23.1 384.6 23.2C385.2 23.4 385.4 23.8 385.4 25.2L385.6 35.4H385.5C385.1 35.1 382 31.8 380.4 30.2C376.9 26.8 373.4 23.2 373.1 22.9C372.7 22.5 372.4 22.1 372.1 22.1C371.9 22.1 371.7 22.4 371.7 22.9L371.5 36.5C371.5 38.5 371.4 39.1 370.8 39.3C370.5 39.4 370 39.4 369.7 39.4C369.5 39.4 369.3 39.5 369.3 39.6C369.3 39.8 369.5 39.8 369.8 39.8C371 39.8 372.1 39.7 372.4 39.7C372.8 39.7 373.9 39.8 375.5 39.8C375.8 39.8 376 39.7 376 39.6C376 39.5 375.9 39.4 375.6 39.4C375.2 39.4 374.8 39.4 374.4 39.2C373.9 39 373.6 38.5 373.6 36.7L373.3 27.3H373.4C373.9 27.7 376.4 30.5 379 33C381.5 35.4 384.5 38.2 385.9 39.6C386.1 39.8 386.5 40.1 386.9 40.1C387.1 40.1 387.3 39.9 387.3 39.4L387.6 24.9C387.6 23.6 387.8 23.2 388.5 23C388.8 22.9 389 22.9 389.2 22.9C389.5 22.9 389.6 22.8 389.6 22.7H388.9ZM405.8 22.5C405.7 22.5 405.6 22.6 405.4 22.6C405.2 22.7 404.9 22.7 404.4 22.7H397.7C397 22.7 395.5 22.6 394.3 22.6C393.9 22.6 393.7 22.7 393.7 22.8C393.7 22.9 393.9 23 394.1 23C394.5 23 394.9 23 395 23.1C395.8 23.3 396 23.6 396 24.3V33.2C396 35.4 396 37.1 395.9 38.1C395.8 38.8 395.7 39.2 395.2 39.3C395 39.4 394.7 39.4 394.4 39.4C394.1 39.4 394 39.5 394 39.6C394 39.8 394.2 39.8 394.5 39.8C395.4 39.8 396.9 39.7 397.5 39.7C398.1 39.7 399.8 39.8 401.3 39.8C401.7 39.8 401.8 39.7 401.8 39.6C401.8 39.5 401.7 39.4 401.4 39.4C401.1 39.4 400.6 39.4 400.2 39.3C399.5 39.2 399.3 38.8 399.3 38.1C399.2 37.1 399.2 35.5 399.2 33.3V31.4C399.2 31.2 399.3 31.2 399.4 31.2C399.8 31.2 402.6 31.2 403.2 31.3C403.9 31.4 404.2 31.8 404.3 32.1C404.4 32.4 404.5 32.6 404.5 32.8C404.5 33 404.6 33.1 404.7 33.1C404.9 33.1 405 32.8 405 32.6C405 32.4 405 31.4 405.1 30.9C405.2 30.2 405.3 29.5 405.3 29.4C405.3 29.3 405.2 29.2 405.2 29.2C405.1 29.2 405 29.3 404.9 29.4C404.7 29.7 404.3 29.8 403.9 29.8H399.5C399.4 29.8 399.3 29.7 399.3 29.6V24C399.3 23.7 399.4 23.7 399.5 23.7L403.4 23.8C404.3 23.8 404.7 24.2 404.9 24.5C405.1 24.8 405 25.2 405 25.4C405 25.7 405.1 25.8 405.3 25.8C405.5 25.8 405.5 25.5 405.5 25.3C405.5 25 405.6 23.7 405.6 23.4C405.7 22.8 405.8 22.5 405.8 22.4C405.9 22.6 405.8 22.5 405.8 22.5ZM422.1 36.4C421.9 36.4 421.9 36.5 421.8 36.8C421.6 37.7 421.4 38.2 420.8 38.5C420.2 38.8 419.2 38.8 418.6 38.8C416.2 38.8 415.4 38.4 415.4 36.9V31.7C415.4 31.6 415.4 31.5 415.5 31.5C416.1 31.5 418.8 31.6 419.2 31.6C420.1 31.7 420.4 32 420.5 32.5C420.6 32.8 420.6 33.1 420.6 33.3C420.6 33.4 420.7 33.5 420.8 33.5C421 33.5 421 33.2 421 33C421 32.8 421.1 31.9 421.1 31.5C421.2 30.3 421.3 30 421.3 29.8C421.3 29.6 421.2 29.6 421.1 29.6C421 29.6 420.9 29.7 420.7 29.9C420.5 30.1 420.1 30.2 419.6 30.3C419.1 30.4 416 30.4 415.4 30.4C415.3 30.4 415.2 30.3 415.2 30.2V24.5C415.2 24.4 415.3 24.3 415.4 24.3C415.9 24.3 418.7 24.4 419.1 24.4C420.3 24.5 420.5 24.8 420.7 25.2C420.8 25.5 420.9 25.9 420.9 26C420.9 26.2 420.9 26.3 421.1 26.3C421.3 26.3 421.3 26 421.4 25.9C421.5 25.6 421.5 24.6 421.5 24.4C421.6 23.3 421.7 23.1 421.7 22.9C421.7 22.8 421.7 22.7 421.5 22.7C421.4 22.7 421.3 22.8 421.1 22.8C420.9 22.8 420.5 22.9 420.1 22.9H413.6C412.9 22.9 411.4 22.8 410.2 22.8C409.8 22.8 409.7 22.9 409.7 23C409.7 23.1 409.9 23.2 410.1 23.2C410.5 23.2 410.9 23.2 411 23.3C411.8 23.5 412 23.8 412 24.5V33.4C412 35.5 412 37.3 411.9 38.3C411.8 39 411.7 39.4 411.2 39.5C411 39.6 410.7 39.6 410.4 39.6C410.1 39.6 410 39.7 410 39.8C410 40 410.2 40 410.5 40C411 40 411.6 40 412.1 39.9H413.4C414.1 39.9 415 39.9 416.2 40C417.4 40.1 418.8 40.1 420.6 40.1C421.5 40.1 421.7 40.1 421.9 39.5C422 39 422.2 37.5 422.2 37C422.4 36.7 422.3 36.4 422.1 36.4ZM442.8 35.7C442.6 35.7 442.6 35.8 442.5 36.2C442.4 36.6 442.1 37.3 441.7 37.7C440.8 38.8 439.6 38.9 437.5 38.9C434.3 38.9 430.1 36.3 430.1 30.9C430.1 28.7 430.5 26.4 432.3 24.9C433.4 24 434.7 23.6 436.8 23.6C439 23.6 440.6 24.2 441.4 24.9C442 25.5 442.3 26.3 442.3 27C442.3 27.3 442.4 27.5 442.5 27.5C442.7 27.5 442.8 27.3 442.8 26.9C442.8 26.4 442.8 25.2 442.9 24.4C443 23.6 443 23.3 443 23.1C443 23 442.9 22.9 442.6 22.8C441.9 22.7 441.1 22.6 440.2 22.4C439.1 22.3 438.2 22.2 436.7 22.2C433.2 22.2 430.9 23.1 429.2 24.6C426.9 26.6 426.4 29.3 426.4 30.9C426.4 33.1 427 35.7 429.4 37.7C431.6 39.5 434.3 40.2 437.6 40.2C439.1 40.2 440.9 40.1 441.9 39.7C442.3 39.5 442.4 39.4 442.5 39C442.7 38.2 443 36.2 443 35.9C443.1 35.9 443 35.7 442.8 35.7ZM461.9 22.5C461.8 22.5 461.6 22.6 461.3 22.6C460.9 22.7 460.4 22.7 459.7 22.7H450.1C449.3 22.7 448.4 22.7 447.7 22.6C447.1 22.5 446.9 22.3 446.7 22.3C446.6 22.3 446.5 22.4 446.4 22.7C446.3 22.9 445.9 25.1 445.9 25.5C445.9 25.7 446 25.9 446.1 25.9C446.3 25.9 446.3 25.8 446.4 25.6C446.5 25.4 446.6 25.1 446.8 24.8C447.2 24.3 447.7 24.1 449.1 24.1L452.6 24V33.3C452.6 35.4 452.6 37.2 452.5 38.2C452.4 38.9 452.3 39.3 451.8 39.4C451.6 39.5 451.3 39.5 451 39.5C450.7 39.5 450.6 39.6 450.6 39.7C450.6 39.9 450.8 39.9 451.1 39.9C452 39.9 453.7 39.8 454.2 39.8C454.9 39.8 456.5 39.9 458 39.9C458.3 39.9 458.5 39.8 458.5 39.7C458.5 39.6 458.4 39.5 458.1 39.5C457.7 39.5 457.2 39.5 456.9 39.4C456.2 39.3 456.1 38.9 456 38.2C455.9 37.2 455.9 35.4 455.9 33.3V24L458.9 24.1C461 24.1 461.7 24.8 461.7 25.4V25.6C461.7 26 461.8 26.1 462 26.1C462.1 26.1 462.2 26 462.2 25.7C462.2 25.1 462.3 23.4 462.3 22.9C462.1 22.7 462 22.5 461.9 22.5ZM473.3 39.6C472.9 39.6 472.4 39.6 472.1 39.5C471.4 39.4 471.2 39 471.2 38.4C471.1 37.4 471.1 35.6 471.1 33.4V29.4C471.1 25.9 471.1 25.3 471.2 24.5C471.3 23.7 471.4 23.4 472.1 23.3C472.4 23.2 472.6 23.2 472.8 23.2C473 23.2 473.2 23.1 473.2 22.9C473.2 22.8 473 22.7 472.7 22.7C471.8 22.7 470.2 22.8 469.6 22.8C468.9 22.8 467.3 22.7 466.4 22.7C466 22.7 465.8 22.8 465.8 22.9C465.8 23.1 465.9 23.2 466.2 23.2C466.5 23.2 466.8 23.2 467.1 23.3C467.6 23.5 467.9 23.7 467.9 24.5V33.4C467.9 35.6 467.9 37.4 467.8 38.4C467.7 39.1 467.6 39.4 467.1 39.5C466.9 39.6 466.6 39.6 466.3 39.6C466 39.6 465.9 39.7 465.9 39.8C465.9 40 466.1 40 466.4 40C467.3 40 469 39.9 469.5 39.9C470.1 39.9 471.8 40 473.3 40C473.6 40 473.8 39.9 473.8 39.8C473.6 39.7 473.5 39.6 473.3 39.6ZM487.2 22.4C480 22.4 477.2 27.5 477.2 31.4C477.2 35.5 480 40.4 486.9 40.4C493 40.4 496.9 36.3 496.9 31C496.9 25.7 493.2 22.4 487.2 22.4ZM488 39.1C483.5 39.1 480.8 35.4 480.8 30.7C480.8 25 483.9 23.6 486.5 23.6C490.3 23.6 493.4 26.7 493.4 31.8C493.4 38.3 489.6 39.1 488 39.1ZM518.9 22.7C518 22.7 516.4 22.8 516.1 22.8C516.1 22.8 514.5 22.7 513.3 22.7C513 22.7 512.8 22.8 512.8 22.9C512.8 23 512.9 23.1 513.2 23.1C513.5 23.1 513.9 23.1 514.1 23.2C514.9 23.4 515 23.7 515.1 24.4C515.1 25.1 515.2 25.8 515.2 29.3V32.2C515.2 34.5 515.1 36.5 513.8 37.8C512.9 38.7 511.6 39 510.6 39C509.8 39 508.7 38.9 507.6 38.1C506.4 37.2 505.8 35.9 505.8 32.5V29.3C505.8 25.8 505.8 25.2 505.9 24.4C506 23.6 506.1 23.3 506.8 23.2C507.1 23.1 507.2 23.1 507.5 23.1C507.7 23.1 507.9 23 507.9 22.9C507.9 22.8 507.7 22.7 507.4 22.7C506.5 22.7 504.9 22.8 504.3 22.8C503.6 22.8 502 22.7 500.7 22.7C500.3 22.7 500.2 22.8 500.2 22.9C500.2 23 500.3 23.1 500.6 23.1C500.9 23.1 501.3 23.1 501.5 23.2C502.3 23.4 502.5 23.6 502.5 24.4C502.6 25.1 502.5 25.8 502.5 29.3V32.7C502.5 36 503.4 37.7 504.7 38.8C506.4 40.3 508.9 40.4 510.1 40.4C511.6 40.4 513.4 40.2 515.1 38.8C517.1 37.2 517.4 34.5 517.4 31.9V29.4C517.4 25.9 517.4 25.3 517.5 24.5C517.6 23.7 517.7 23.4 518.4 23.3C518.7 23.2 518.8 23.2 519.1 23.2C519.4 23.2 519.5 23.1 519.5 23C519.5 22.9 519.3 22.7 518.9 22.7ZM530.2 29.6L529.2 29.1C527.1 27.9 526.7 27.1 526.7 26.1C526.7 24.5 528.2 23.6 529.9 23.6C531.4 23.6 532.2 24.2 532.5 24.7C533 25.3 533.1 26 533.1 26.2C533.1 26.5 533.2 26.6 533.3 26.6C533.5 26.6 533.6 26.4 533.6 25.9C533.6 24.1 533.7 23.4 533.7 23.1C533.7 22.9 533.6 22.9 533.4 22.8C532.8 22.6 531.6 22.4 530 22.4C526.7 22.4 524 24.2 524 27C524 29 524.9 30.6 527.7 32.2L529.3 33C531.4 34.2 531.6 35.2 531.6 36.2C531.6 37.8 530.4 39.1 528.3 39.1C526.8 39.1 525 38.5 524.5 36.8C524.4 36.4 524.3 35.9 524.3 35.6C524.3 35.4 524.3 35.2 524.1 35.2C523.9 35.2 523.8 35.4 523.8 35.8C523.8 36.2 523.7 37.6 523.7 38.8C523.7 39.3 523.8 39.4 524.2 39.6C525.2 40.1 526.7 40.2 528.1 40.2C529.4 40.2 530.9 40.1 532.1 39.3C533.8 38.1 534.5 36.7 534.5 35C534.3 33 533.4 31.3 530.2 29.6ZM557.2 19.6C555.6 19.6 553.9 19.7 553 19.7C552.2 19.7 550.5 19.6 549.1 19.6C548.7 19.6 548.5 19.7 548.5 19.8C548.5 20 548.7 20 549 20C549.4 20 549.8 20 550.1 20.1C551 20.3 551.2 20.7 551.3 21.6C551.4 22.5 551.4 23.2 551.4 27.3V32.1C551.4 34.6 551.4 36.7 551.3 37.9C551.2 38.7 551.1 39.3 550.5 39.4C550.3 39.5 549.9 39.5 549.5 39.5C549.2 39.5 549.1 39.6 549.1 39.7C549.1 39.9 549.3 40 549.6 40C550.1 40 550.8 39.9 551.5 39.9H553C553.7 39.9 554.6 40 555.6 40.1C556.6 40.2 557.7 40.3 558.7 40.3C563.7 40.3 566.5 38.4 567.7 37.1C569.2 35.6 570.6 33 570.6 29.6C570.6 26.4 569.3 24.1 568 22.7C565.1 19.6 560.6 19.6 557.2 19.6ZM564.8 37.1C563.2 38.5 561.3 39 558.6 39C556.5 39 555.4 38.4 555.1 37.9C554.9 37.6 554.8 36.5 554.8 35.8C554.8 35.3 554.7 33.2 554.7 30.3V21.6C554.7 21.3 554.8 21.2 555 21.1C555.2 21 556.2 20.9 556.8 20.9C558.9 20.9 562 21.2 564.5 23.6C565.7 24.7 567.1 26.9 567.1 30.3C567.1 33.1 566.5 35.6 564.8 37.1ZM581.8 39.6C581.4 39.6 580.9 39.6 580.6 39.5C579.9 39.4 579.7 39 579.7 38.4C579.6 37.4 579.6 35.6 579.6 33.4V29.4C579.6 25.9 579.6 25.3 579.7 24.5C579.8 23.7 579.9 23.4 580.6 23.3C580.9 23.2 581.1 23.2 581.3 23.2C581.5 23.2 581.7 23.1 581.7 22.9C581.7 22.8 581.5 22.7 581.2 22.7C580.3 22.7 578.7 22.8 578.2 22.8C577.5 22.8 575.9 22.7 575 22.7C574.6 22.7 574.4 22.8 574.4 22.9C574.4 23.1 574.5 23.2 574.8 23.2C575.1 23.2 575.4 23.2 575.7 23.3C576.2 23.5 576.5 23.7 576.5 24.5V33.4C576.5 35.6 576.5 37.4 576.4 38.4C576.3 39.1 576.2 39.4 575.7 39.5C575.5 39.6 575.2 39.6 574.9 39.6C574.6 39.6 574.5 39.7 574.5 39.8C574.5 40 574.7 40 575 40C575.9 40 577.6 39.9 578.1 39.9C578.7 39.9 580.4 40 581.9 40C582.2 40 582.4 39.9 582.4 39.8C582.2 39.7 582.1 39.6 581.8 39.6ZM593.5 29.6L592.5 29.1C590.4 27.9 590 27.1 590 26.1C590 24.5 591.5 23.6 593.2 23.6C594.7 23.6 595.5 24.2 595.8 24.7C596.3 25.3 596.4 26 596.4 26.2C596.4 26.5 596.5 26.6 596.6 26.6C596.8 26.6 596.9 26.4 596.9 25.9C596.9 24.1 597 23.4 597 23.1C597 22.9 596.9 22.9 596.7 22.8C596.1 22.6 594.9 22.4 593.3 22.4C590 22.4 587.3 24.2 587.3 27C587.3 29 588.2 30.6 591 32.2L592.4 33C594.5 34.2 594.7 35.2 594.7 36.2C594.7 37.8 593.5 39.1 591.4 39.1C589.9 39.1 588.1 38.5 587.6 36.8C587.5 36.4 587.4 35.9 587.4 35.6C587.4 35.4 587.4 35.2 587.2 35.2C587 35.2 586.9 35.4 586.9 35.8C586.9 36.2 586.8 37.6 586.8 38.8C586.8 39.3 586.9 39.4 587.3 39.6C588.3 40.1 589.8 40.2 591.2 40.2C592.5 40.2 594 40.1 595.2 39.3C596.9 38.1 597.6 36.7 597.6 35C597.6 33 596.6 31.3 593.5 29.6ZM614 36.4C613.8 36.4 613.8 36.5 613.7 36.8C613.5 37.7 613.3 38.2 612.7 38.5C612.1 38.8 611.1 38.8 610.5 38.8C608.1 38.8 607.3 38.4 607.3 36.9V31.7C607.3 31.6 607.3 31.5 607.4 31.5C608 31.5 610.7 31.6 611.1 31.6C612 31.7 612.3 32 612.4 32.5C612.5 32.8 612.5 33.1 612.5 33.3C612.5 33.4 612.6 33.5 612.7 33.5C612.9 33.5 612.9 33.2 612.9 33C612.9 32.8 613 31.9 613 31.5C613.1 30.3 613.2 30 613.2 29.8C613.2 29.6 613.1 29.6 613 29.6C612.9 29.6 612.8 29.7 612.6 29.9C612.4 30.1 612 30.2 611.5 30.3C611 30.4 607.9 30.4 607.3 30.4C607.2 30.4 607.1 30.3 607.1 30.2V24.5C607.1 24.4 607.2 24.3 607.3 24.3C607.8 24.3 610.6 24.4 611 24.4C612.2 24.5 612.4 24.8 612.6 25.2C612.7 25.5 612.8 25.9 612.8 26C612.8 26.2 612.8 26.3 613 26.3C613.2 26.3 613.2 26 613.3 25.9C613.4 25.6 613.4 24.6 613.4 24.4C613.5 23.3 613.6 23.1 613.6 22.9C613.6 22.8 613.6 22.7 613.4 22.7C613.3 22.7 613.2 22.8 613 22.8C612.8 22.8 612.4 22.9 612 22.9H605.5C604.8 22.9 603.3 22.8 602.1 22.8C601.7 22.8 601.6 22.9 601.6 23C601.6 23.1 601.8 23.2 602 23.2C602.4 23.2 602.8 23.2 602.9 23.3C603.7 23.5 603.9 23.8 603.9 24.5V33.4C603.9 35.5 603.9 37.3 603.8 38.3C603.7 39 603.6 39.4 603.1 39.5C602.9 39.6 602.6 39.6 602.3 39.6C602 39.6 601.9 39.7 601.9 39.8C601.9 40 602.1 40 602.4 40C602.9 40 603.5 40 604 39.9H605.3C606 39.9 606.9 39.9 608.1 40C609.3 40.1 610.7 40.1 612.5 40.1C613.4 40.1 613.6 40.1 613.8 39.5C613.9 39 614.1 37.5 614.1 37C614.2 36.7 614.2 36.4 614 36.4ZM635.1 39.6C634.8 39.6 634.6 39.6 634.2 39.5C633.8 39.4 633.1 39.1 632.2 37C630.7 33.5 626.7 24.2 626.2 23C626 22.5 625.8 22.3 625.5 22.3C625.3 22.3 625.1 22.6 624.8 23.2L618.6 37.5C618.1 38.7 617.7 39.4 616.6 39.5H615.9C615.7 39.5 615.6 39.6 615.6 39.7C615.6 39.9 615.7 39.9 616 39.9C617.2 39.9 618.5 39.8 618.8 39.8C619.6 39.8 620.7 39.9 621.4 39.9C621.6 39.9 621.8 39.8 621.8 39.7C621.8 39.6 621.7 39.5 621.4 39.5H621C620.3 39.5 620.1 39.3 620.1 38.9C620.1 38.6 620.2 38.1 620.5 37.5L621.8 34.4C621.9 34.3 621.9 34.2 622 34.2H627.6C627.7 34.2 627.8 34.2 627.8 34.4L629.6 39C629.7 39.3 629.5 39.5 629.4 39.5C629.2 39.5 629.1 39.6 629.1 39.7C629.1 39.9 629.4 39.9 629.8 39.9C631.8 40 633.5 40 634.4 40C635.3 40 635.4 39.9 635.4 39.8C635.4 39.6 635.3 39.6 635.1 39.6ZM627.1 33H622.5C622.4 33 622.4 32.9 622.4 32.8L624.7 27.1C624.7 27 624.8 26.9 624.8 26.9C624.9 26.9 624.9 27 624.9 27.1L627.1 32.9C627.2 32.9 627.2 33 627.1 33ZM643.9 29.6L642.9 29.1C640.8 27.9 640.4 27.1 640.4 26.1C640.4 24.5 641.9 23.6 643.6 23.6C645.1 23.6 645.9 24.2 646.2 24.7C646.7 25.3 646.8 26 646.8 26.2C646.8 26.5 646.9 26.6 647 26.6C647.2 26.6 647.3 26.4 647.3 25.9C647.3 24.1 647.4 23.4 647.4 23.1C647.4 22.9 647.3 22.9 647.1 22.8C646.5 22.6 645.3 22.4 643.7 22.4C640.4 22.4 637.7 24.2 637.7 27C637.7 29 638.6 30.6 641.4 32.2L642.8 33C644.9 34.2 645.1 35.2 645.1 36.2C645.1 37.8 643.9 39.1 641.8 39.1C640.3 39.1 638.5 38.5 638 36.8C637.9 36.4 637.8 35.9 637.8 35.6C637.8 35.4 637.8 35.2 637.6 35.2C637.4 35.2 637.3 35.4 637.3 35.8C637.3 36.2 637.2 37.6 637.2 38.8C637.2 39.3 637.3 39.4 637.7 39.6C638.7 40.1 640.2 40.2 641.6 40.2C642.9 40.2 644.4 40.1 645.6 39.3C647.3 38.1 648 36.7 648 35C648 33 647 31.3 643.9 29.6ZM664.4 36.4C664.2 36.4 664.2 36.5 664.1 36.8C663.9 37.7 663.7 38.2 663.1 38.5C662.5 38.8 661.5 38.8 660.9 38.8C658.5 38.8 657.7 38.4 657.7 36.9V31.7C657.7 31.6 657.7 31.5 657.8 31.5C658.4 31.5 661.1 31.6 661.5 31.6C662.4 31.7 662.7 32 662.8 32.5C662.9 32.8 662.9 33.1 662.9 33.3C662.9 33.4 663 33.5 663.1 33.5C663.3 33.5 663.3 33.2 663.3 33C663.3 32.8 663.4 31.9 663.4 31.5C663.5 30.3 663.6 30 663.6 29.8C663.6 29.6 663.5 29.6 663.4 29.6C663.3 29.6 663.2 29.7 663 29.9C662.8 30.1 662.4 30.2 661.9 30.3C661.4 30.4 658.3 30.4 657.7 30.4C657.6 30.4 657.5 30.3 657.5 30.2V24.5C657.5 24.4 657.6 24.3 657.7 24.3C658.2 24.3 661 24.4 661.4 24.4C662.6 24.5 662.8 24.8 663 25.2C663.1 25.5 663.2 25.9 663.2 26C663.2 26.2 663.2 26.3 663.4 26.3C663.6 26.3 663.6 26 663.7 25.9C663.8 25.6 663.8 24.6 663.8 24.4C663.9 23.3 664 23.1 664 22.9C664 22.8 664 22.7 663.8 22.7C663.7 22.7 663.6 22.8 663.4 22.8C663.2 22.8 662.8 22.9 662.4 22.9H655.9C655.2 22.9 653.7 22.8 652.5 22.8C652.1 22.8 652 22.9 652 23C652 23.1 652.2 23.2 652.4 23.2C652.8 23.2 653.2 23.2 653.3 23.3C654.1 23.5 654.3 23.8 654.3 24.5V33.4C654.3 35.5 654.3 37.3 654.2 38.3C654.1 39 654 39.4 653.5 39.5C653.3 39.6 653 39.6 652.7 39.6C652.4 39.6 652.3 39.7 652.3 39.8C652.3 40 652.5 40 652.8 40C653.3 40 653.9 40 654.4 39.9H655.7C656.4 39.9 657.3 39.9 658.5 40C659.7 40.1 661.1 40.1 662.9 40.1C663.8 40.1 664 40.1 664.2 39.5C664.3 39 664.5 37.5 664.5 37C664.7 36.7 664.6 36.4 664.4 36.4ZM676.2 29.6L675.2 29.1C673.1 27.9 672.7 27.1 672.7 26.1C672.7 24.5 674.2 23.6 675.9 23.6C677.4 23.6 678.2 24.2 678.5 24.7C679 25.3 679.1 26 679.1 26.2C679.1 26.5 679.2 26.6 679.3 26.6C679.5 26.6 679.6 26.4 679.6 25.9C679.6 24.1 679.7 23.4 679.7 23.1C679.7 22.9 679.6 22.9 679.4 22.8C678.8 22.6 677.6 22.4 676 22.4C672.7 22.4 670 24.2 670 27C670 29 670.9 30.6 673.7 32.2L675.3 33C677.4 34.2 677.6 35.2 677.6 36.2C677.6 37.8 676.4 39.1 674.3 39.1C672.8 39.1 671 38.5 670.5 36.8C670.4 36.4 670.3 35.9 670.3 35.6C670.3 35.4 670.3 35.2 670.1 35.2C669.9 35.2 669.8 35.4 669.8 35.8C669.8 36.2 669.7 37.6 669.7 38.8C669.7 39.3 669.8 39.4 670.2 39.6C671.2 40.1 672.7 40.2 674.1 40.2C675.4 40.2 676.9 40.1 678.1 39.3C679.8 38.1 680.5 36.7 680.5 35C680.3 33 679.3 31.3 676.2 29.6Z"/>
</svg>
